<?xml version="1.0" encoding="UTF-8"?><svg xmlns="http://www.w3.org/2000/svg" xmlns:xlink="http://www.w3.org/1999/xlink" fill-opacity="1" color-rendering="auto" color-interpolation="auto" text-rendering="auto" stroke="black" stroke-linecap="square" width="631" stroke-miterlimit="10" shape-rendering="auto" stroke-opacity="1" fill="black" stroke-dasharray="none" font-weight="normal" stroke-width="1" height="374" font-family="'Dialog'" font-style="normal" stroke-linejoin="miter" font-size="12px" stroke-dashoffset="0" image-rendering="auto">
  <!--Generated by ySVG 2.6-->
  <defs id="genericDefs"/>
  <g>
    <defs id="defs1">
      <clipPath clipPathUnits="userSpaceOnUse" id="clipPath1">
        <path d="M0 0 L631 0 L631 374 L0 374 L0 0 Z"/>
      </clipPath>
      <clipPath clipPathUnits="userSpaceOnUse" id="clipPath2">
        <path d="M383 170 L1014 170 L1014 544 L383 544 L383 170 Z"/>
      </clipPath>
    </defs>
    <g fill="rgb(248,248,248)" text-rendering="geometricPrecision" shape-rendering="geometricPrecision" transform="translate(-383,-170)" stroke="rgb(248,248,248)">
      <rect x="383" width="631" height="374" y="170" clip-path="url(#clipPath2)" stroke="none"/>
    </g>
    <g fill="white" text-rendering="geometricPrecision" shape-rendering="geometricPrecision" transform="matrix(1,0,0,1,-383,-170)" stroke="white">
      <circle r="25" clip-path="url(#clipPath2)" cx="426.25" cy="504" stroke="none"/>
    </g>
    <g text-rendering="geometricPrecision" stroke-miterlimit="1.45" shape-rendering="geometricPrecision" transform="matrix(1,0,0,1,-383,-170)" stroke-linecap="butt">
      <circle fill="none" r="25" clip-path="url(#clipPath2)" cx="426.25" cy="504"/>
      <text x="419.2981" font-size="25px" y="513.8206" clip-path="url(#clipPath2)" font-family="sans-serif" stroke="none" xml:space="preserve">7</text>
    </g>
    <g fill="white" text-rendering="geometricPrecision" shape-rendering="geometricPrecision" transform="matrix(1,0,0,1,-383,-170)" stroke="white">
      <circle r="25" clip-path="url(#clipPath2)" cx="697.25" cy="210" stroke="none"/>
    </g>
    <g text-rendering="geometricPrecision" stroke-miterlimit="1.45" shape-rendering="geometricPrecision" transform="matrix(1,0,0,1,-383,-170)" stroke-linecap="butt">
      <circle fill="none" r="25" clip-path="url(#clipPath2)" cx="697.25" cy="210"/>
    </g>
    <g stroke-linecap="butt" font-size="25px" transform="matrix(1,0,0,1,-383,-170)" fill="rgb(153,153,153)" text-rendering="geometricPrecision" font-family="sans-serif" shape-rendering="geometricPrecision" stroke="rgb(153,153,153)" stroke-miterlimit="1.45">
      <text x="690.2981" xml:space="preserve" y="219.8206" clip-path="url(#clipPath2)" stroke="none">1</text>
    </g>
    <g fill="white" text-rendering="geometricPrecision" shape-rendering="geometricPrecision" transform="matrix(1,0,0,1,-383,-170)" stroke="white">
      <circle r="25" clip-path="url(#clipPath2)" cx="584.75" cy="308" stroke="none"/>
    </g>
    <g text-rendering="geometricPrecision" stroke-miterlimit="1.45" shape-rendering="geometricPrecision" transform="matrix(1,0,0,1,-383,-170)" stroke-linecap="butt">
      <circle fill="none" r="25" clip-path="url(#clipPath2)" cx="584.75" cy="308"/>
    </g>
    <g stroke-linecap="butt" font-size="25px" transform="matrix(1,0,0,1,-383,-170)" fill="rgb(153,153,153)" text-rendering="geometricPrecision" font-family="sans-serif" shape-rendering="geometricPrecision" stroke="rgb(153,153,153)" stroke-miterlimit="1.45">
      <text x="577.7981" xml:space="preserve" y="317.8206" clip-path="url(#clipPath2)" stroke="none">2</text>
    </g>
    <g fill="white" text-rendering="geometricPrecision" shape-rendering="geometricPrecision" transform="matrix(1,0,0,1,-383,-170)" stroke="white">
      <circle r="25" clip-path="url(#clipPath2)" cx="791" cy="308" stroke="none"/>
    </g>
    <g stroke-linecap="round" transform="matrix(1,0,0,1,-383,-170)" text-rendering="geometricPrecision" shape-rendering="geometricPrecision" stroke-dasharray="12,9,0,9" stroke-width="3" stroke-miterlimit="1.45">
      <circle fill="none" r="25" clip-path="url(#clipPath2)" cx="791" cy="308"/>
    </g>
    <g stroke-linecap="butt" font-size="25px" transform="matrix(1,0,0,1,-383,-170)" fill="rgb(153,153,153)" text-rendering="geometricPrecision" font-family="sans-serif" shape-rendering="geometricPrecision" stroke="rgb(153,153,153)" stroke-miterlimit="1.45">
      <text x="784.0481" xml:space="preserve" y="317.8206" clip-path="url(#clipPath2)" stroke="none">4</text>
    </g>
    <g fill="white" text-rendering="geometricPrecision" shape-rendering="geometricPrecision" transform="matrix(1,0,0,1,-383,-170)" stroke="white">
      <circle r="25" clip-path="url(#clipPath2)" cx="697.25" cy="308" stroke="none"/>
    </g>
    <g stroke-linecap="round" transform="matrix(1,0,0,1,-383,-170)" text-rendering="geometricPrecision" shape-rendering="geometricPrecision" stroke-dasharray="12,9,0,9" stroke-width="3" stroke-miterlimit="1.45">
      <circle fill="none" r="25" clip-path="url(#clipPath2)" cx="697.25" cy="308"/>
    </g>
    <g stroke-linecap="butt" font-size="25px" transform="matrix(1,0,0,1,-383,-170)" fill="rgb(153,153,153)" text-rendering="geometricPrecision" font-family="sans-serif" shape-rendering="geometricPrecision" stroke="rgb(153,153,153)" stroke-miterlimit="1.45">
      <text x="690.2981" xml:space="preserve" y="317.8206" clip-path="url(#clipPath2)" stroke="none">3</text>
    </g>
    <g fill="white" text-rendering="geometricPrecision" shape-rendering="geometricPrecision" transform="matrix(1,0,0,1,-383,-170)" stroke="white">
      <circle r="25" clip-path="url(#clipPath2)" cx="547.25" cy="406" stroke="none"/>
    </g>
    <g text-rendering="geometricPrecision" stroke-miterlimit="1.45" shape-rendering="geometricPrecision" transform="matrix(1,0,0,1,-383,-170)" stroke-linecap="butt">
      <circle fill="none" r="25" clip-path="url(#clipPath2)" cx="547.25" cy="406"/>
    </g>
    <g stroke-linecap="butt" font-size="25px" transform="matrix(1,0,0,1,-383,-170)" fill="rgb(153,153,153)" text-rendering="geometricPrecision" font-family="sans-serif" shape-rendering="geometricPrecision" stroke="rgb(153,153,153)" stroke-miterlimit="1.45">
      <text x="540.2981" xml:space="preserve" y="415.8206" clip-path="url(#clipPath2)" stroke="none">5</text>
    </g>
    <g fill="white" text-rendering="geometricPrecision" shape-rendering="geometricPrecision" transform="matrix(1,0,0,1,-383,-170)" stroke="white">
      <circle r="25" clip-path="url(#clipPath2)" cx="622.25" cy="406" stroke="none"/>
    </g>
    <g stroke-linecap="round" transform="matrix(1,0,0,1,-383,-170)" text-rendering="geometricPrecision" shape-rendering="geometricPrecision" stroke-dasharray="12,9,0,9" stroke-width="3" stroke-miterlimit="1.45">
      <circle fill="none" r="25" clip-path="url(#clipPath2)" cx="622.25" cy="406"/>
    </g>
    <g stroke-linecap="butt" font-size="25px" transform="matrix(1,0,0,1,-383,-170)" fill="rgb(153,153,153)" text-rendering="geometricPrecision" font-family="sans-serif" shape-rendering="geometricPrecision" stroke="rgb(153,153,153)" stroke-miterlimit="1.45">
      <text x="615.2981" xml:space="preserve" y="415.8206" clip-path="url(#clipPath2)" stroke="none">6</text>
    </g>
    <g fill="white" text-rendering="geometricPrecision" shape-rendering="geometricPrecision" transform="matrix(1,0,0,1,-383,-170)" stroke="white">
      <circle r="25" clip-path="url(#clipPath2)" cx="697.25" cy="406" stroke="none"/>
    </g>
    <g text-rendering="geometricPrecision" stroke-miterlimit="1.45" shape-rendering="geometricPrecision" transform="matrix(1,0,0,1,-383,-170)" stroke-linecap="butt">
      <circle fill="none" r="25" clip-path="url(#clipPath2)" cx="697.25" cy="406"/>
    </g>
    <g stroke-linecap="butt" font-size="25px" transform="matrix(1,0,0,1,-383,-170)" fill="rgb(153,153,153)" text-rendering="geometricPrecision" font-family="sans-serif" shape-rendering="geometricPrecision" stroke="rgb(153,153,153)" stroke-miterlimit="1.45">
      <text x="690.2981" xml:space="preserve" y="415.8206" clip-path="url(#clipPath2)" stroke="none">7</text>
    </g>
    <g font-size="14px" stroke-linecap="butt" transform="matrix(1,0,0,1,-383,-170)" text-rendering="geometricPrecision" font-family="sans-serif" shape-rendering="geometricPrecision" font-weight="bold" stroke-miterlimit="1.45">
      <text x="680.8569" xml:space="preserve" y="205.4995" clip-path="url(#clipPath2)" stroke="none">0</text>
      <text x="570.8569" xml:space="preserve" y="303.4995" clip-path="url(#clipPath2)" stroke="none">1</text>
      <text x="530.8569" xml:space="preserve" y="401.4995" clip-path="url(#clipPath2)" stroke="none">2</text>
      <text x="680.8569" xml:space="preserve" y="303.4995" clip-path="url(#clipPath2)" stroke="none">4</text>
      <text x="680.8569" xml:space="preserve" y="401.4995" clip-path="url(#clipPath2)" stroke="none">5</text>
      <text x="605.8569" xml:space="preserve" y="401.4995" clip-path="url(#clipPath2)" stroke="none">3</text>
      <text x="774.6069" xml:space="preserve" y="303.4995" clip-path="url(#clipPath2)" stroke="none">6</text>
    </g>
    <g fill="white" text-rendering="geometricPrecision" shape-rendering="geometricPrecision" transform="matrix(1,0,0,1,-383,-170)" stroke="white">
      <circle r="25" clip-path="url(#clipPath2)" cx="515.75" cy="504" stroke="none"/>
    </g>
    <g text-rendering="geometricPrecision" stroke-miterlimit="1.45" shape-rendering="geometricPrecision" transform="matrix(1,0,0,1,-383,-170)" stroke-linecap="butt">
      <circle fill="none" r="25" clip-path="url(#clipPath2)" cx="515.75" cy="504"/>
      <text x="508.7981" font-size="25px" y="513.8206" clip-path="url(#clipPath2)" font-family="sans-serif" stroke="none" xml:space="preserve">4</text>
    </g>
    <g fill="white" text-rendering="geometricPrecision" shape-rendering="geometricPrecision" transform="matrix(1,0,0,1,-383,-170)" stroke="white">
      <circle r="25" clip-path="url(#clipPath2)" cx="973.25" cy="504" stroke="none"/>
    </g>
    <g text-rendering="geometricPrecision" stroke-miterlimit="1.45" shape-rendering="geometricPrecision" transform="matrix(1,0,0,1,-383,-170)" stroke-linecap="butt">
      <circle fill="none" r="25" clip-path="url(#clipPath2)" cx="973.25" cy="504"/>
      <text x="966.2981" font-size="25px" y="513.8206" clip-path="url(#clipPath2)" font-family="sans-serif" stroke="none" xml:space="preserve">7</text>
    </g>
    <g fill="white" text-rendering="geometricPrecision" shape-rendering="geometricPrecision" transform="matrix(1,0,0,1,-383,-170)" stroke="white">
      <circle r="25" clip-path="url(#clipPath2)" cx="789.25" cy="504" stroke="none"/>
    </g>
    <g text-rendering="geometricPrecision" stroke-miterlimit="1.45" shape-rendering="geometricPrecision" transform="matrix(1,0,0,1,-383,-170)" stroke-linecap="butt">
      <circle fill="none" r="25" clip-path="url(#clipPath2)" cx="789.25" cy="504"/>
      <text x="782.2981" font-size="25px" y="513.8206" clip-path="url(#clipPath2)" font-family="sans-serif" stroke="none" xml:space="preserve">6</text>
    </g>
    <g fill="white" text-rendering="geometricPrecision" shape-rendering="geometricPrecision" transform="matrix(1,0,0,1,-383,-170)" stroke="white">
      <circle r="25" clip-path="url(#clipPath2)" cx="605.25" cy="504" stroke="none"/>
    </g>
    <g text-rendering="geometricPrecision" stroke-miterlimit="1.45" shape-rendering="geometricPrecision" transform="matrix(1,0,0,1,-383,-170)" stroke-linecap="butt">
      <circle fill="none" r="25" clip-path="url(#clipPath2)" cx="605.25" cy="504"/>
      <text x="598.2981" font-size="25px" y="513.8206" clip-path="url(#clipPath2)" font-family="sans-serif" stroke="none" xml:space="preserve">3</text>
    </g>
    <g fill="white" text-rendering="geometricPrecision" shape-rendering="geometricPrecision" transform="matrix(1,0,0,1,-383,-170)" stroke="white">
      <circle r="25" clip-path="url(#clipPath2)" cx="697.25" cy="504" stroke="none"/>
    </g>
    <g text-rendering="geometricPrecision" stroke-miterlimit="1.45" shape-rendering="geometricPrecision" transform="matrix(1,0,0,1,-383,-170)" stroke-linecap="butt">
      <circle fill="none" r="25" clip-path="url(#clipPath2)" cx="697.25" cy="504"/>
      <text x="690.2981" font-size="25px" y="513.8206" clip-path="url(#clipPath2)" font-family="sans-serif" stroke="none" xml:space="preserve">4</text>
    </g>
    <g fill="white" text-rendering="geometricPrecision" shape-rendering="geometricPrecision" transform="matrix(1,0,0,1,-383,-170)" stroke="white">
      <circle r="25" clip-path="url(#clipPath2)" cx="881.25" cy="504" stroke="none"/>
    </g>
    <g text-rendering="geometricPrecision" stroke-miterlimit="1.45" shape-rendering="geometricPrecision" transform="matrix(1,0,0,1,-383,-170)" stroke-linecap="butt">
      <circle fill="none" r="25" clip-path="url(#clipPath2)" cx="881.25" cy="504"/>
      <text x="874.2981" font-size="25px" y="513.8206" clip-path="url(#clipPath2)" font-family="sans-serif" stroke="none" xml:space="preserve">6</text>
      <text x="409.8569" font-size="14px" y="499.4995" clip-path="url(#clipPath2)" font-family="sans-serif" stroke="none" font-weight="bold" xml:space="preserve">0</text>
      <text x="501.8569" font-size="14px" y="499.4995" clip-path="url(#clipPath2)" font-family="sans-serif" stroke="none" font-weight="bold" xml:space="preserve">1</text>
      <text x="588.8569" font-size="14px" y="499.4995" clip-path="url(#clipPath2)" font-family="sans-serif" stroke="none" font-weight="bold" xml:space="preserve">2</text>
      <text x="772.8569" font-size="14px" y="499.4995" clip-path="url(#clipPath2)" font-family="sans-serif" stroke="none" font-weight="bold" xml:space="preserve">4</text>
      <text x="864.8569" font-size="14px" y="499.4995" clip-path="url(#clipPath2)" font-family="sans-serif" stroke="none" font-weight="bold" xml:space="preserve">5</text>
      <text x="680.8569" font-size="14px" y="499.4995" clip-path="url(#clipPath2)" font-family="sans-serif" stroke="none" font-weight="bold" xml:space="preserve">3</text>
      <text x="956.8569" font-size="14px" y="499.4995" clip-path="url(#clipPath2)" font-family="sans-serif" stroke="none" font-weight="bold" xml:space="preserve">6</text>
    </g>
    <g fill="white" text-rendering="geometricPrecision" shape-rendering="geometricPrecision" transform="matrix(1,0,0,1,-383,-170)" stroke="white">
      <circle r="25" clip-path="url(#clipPath2)" cx="884.75" cy="308" stroke="none"/>
    </g>
    <g stroke-linecap="round" transform="matrix(1,0,0,1,-383,-170)" text-rendering="geometricPrecision" shape-rendering="geometricPrecision" stroke-dasharray="12,9,0,9" stroke-width="3" stroke-miterlimit="1.45">
      <circle fill="none" r="25" clip-path="url(#clipPath2)" cx="884.75" cy="308"/>
    </g>
    <g text-rendering="geometricPrecision" stroke-miterlimit="1.45" shape-rendering="geometricPrecision" font-family="sans-serif" transform="matrix(1,0,0,1,-383,-170)" stroke-linecap="butt">
      <text x="871.4131" xml:space="preserve" y="302.7139" clip-path="url(#clipPath2)" stroke="none">7</text>
      <path fill="none" d="M678.3993 226.4211 L609.6329 286.3242" clip-path="url(#clipPath2)" stroke="rgb(153,153,153)"/>
      <path fill="rgb(153,153,153)" d="M603.6007 291.5789 L615.9333 287.467 L610.387 285.6674 L609.3649 279.9267 Z" clip-path="url(#clipPath2)" stroke="none"/>
      <path fill="none" d="M714.5316 228.065 L768.1883 284.1541" clip-path="url(#clipPath2)" stroke="rgb(153,153,153)"/>
      <path fill="rgb(153,153,153)" d="M773.7184 289.935 L769.0363 277.8074 L767.497 283.4315 L761.8102 284.72 Z" clip-path="url(#clipPath2)" stroke="none"/>
      <path fill="none" d="M697.25 235 L697.25 275" clip-path="url(#clipPath2)" stroke="rgb(153,153,153)"/>
      <path fill="rgb(153,153,153)" d="M697.25 283 L702.25 271 L697.25 274 L692.25 271 Z" clip-path="url(#clipPath2)" stroke="none"/>
      <path fill="none" d="M575.8154 331.349 L559.0436 375.1794" clip-path="url(#clipPath2)" stroke="rgb(153,153,153)"/>
      <path fill="rgb(153,153,153)" d="M556.1846 382.6511 L565.1429 373.2304 L559.4009 374.2454 L555.8033 369.6566 Z" clip-path="url(#clipPath2)" stroke="none"/>
      <path fill="none" d="M593.6846 331.349 L610.4564 375.1794" clip-path="url(#clipPath2)" stroke="rgb(153,153,153)"/>
      <path fill="rgb(153,153,153)" d="M613.3154 382.6511 L613.6967 369.6566 L610.0991 374.2454 L604.3571 373.2304 Z" clip-path="url(#clipPath2)" stroke="none"/>
      <path fill="none" d="M697.25 333 L697.25 373" clip-path="url(#clipPath2)" stroke="rgb(153,153,153)"/>
      <path fill="rgb(153,153,153)" d="M697.25 381 L702.25 369 L697.25 372 L692.25 369 Z" clip-path="url(#clipPath2)" stroke="none"/>
      <path fill="none" stroke-dasharray="6,2" d="M585.8286 287.8874 L588.5 285.449 L602.25 276.484 L616 271.105 L629.75 269.312 L643.5 271.105 L657.25 276.484 L667.3066 283.0409 L667.3804 283.1083" clip-path="url(#clipPath2)"/>
      <path stroke-dasharray="6,2" d="M673.7507 287.9477 L667.2199 276.7072 L666.5842 282.5034 L661.1707 284.67 Z" clip-path="url(#clipPath2)" stroke="none"/>
      <path fill="none" stroke-dasharray="6,2" d="M540.7346 409.7545 L544.125 417.5469 L553.5 432.9375 L558.1875 438.3242 L562.875 442.1719 L567.5625 444.4805 L572.25 445.25 L576.9375 444.4805 L581.625 442.1719 L586.3125 438.3242 L591 432.9375 L600.375 417.5469 L600.5737 417.0902" clip-path="url(#clipPath2)"/>
      <path stroke-dasharray="6,2" d="M603.7654 409.7545 L594.3931 418.7632 L600.1747 418.0071 L603.5627 422.7529 Z" clip-path="url(#clipPath2)" stroke="none"/>
      <path fill="none" stroke-dasharray="6,2" d="M613.4553 381.4648 L613.8934 379.7462 L619.5315 364.6364 L626.6644 350.6704 L635.292 337.8484 L645.4144 326.1704 L657.0315 315.6364 L665.0747 309.8762 L665.1618 309.827" clip-path="url(#clipPath2)"/>
      <path stroke-dasharray="6,2" d="M671.7701 305.3181 L659.0396 307.9513 L664.3358 310.3906 L664.6757 316.2117 Z" clip-path="url(#clipPath2)" stroke="none"/>
      <path fill="none" stroke-dasharray="6,2" d="M695.6278 287.6718 L696.4688 286.8733 L708.1875 278.9257 L719.9062 274.1571 L731.625 272.5676 L743.3438 274.1571 L755.0625 278.9257 L761.1091 283.0264 L761.1816 283.0953" clip-path="url(#clipPath2)"/>
      <path stroke-dasharray="6,2" d="M767.7029 287.7291 L760.817 276.7025 L760.3664 282.5161 L755.0248 284.8542 Z" clip-path="url(#clipPath2)" stroke="none"/>
      <path fill="none" stroke-dasharray="6,2" d="M699.4299 392.9179 L704.8605 391.7778 L722.5732 385.2619 L737.8885 376.4524 L750.806 365.3492 L761.326 351.9524 L769.4482 336.2619 L774.424 320.6306 L774.4402 320.532" clip-path="url(#clipPath2)"/>
      <path stroke-dasharray="6,2" d="M776.092 312.7043 L768.722 323.4133 L774.2337 321.5104 L778.5065 325.4781 Z" clip-path="url(#clipPath2)" stroke="none"/>
      <path fill="none" stroke-dasharray="6,2" d="M699.3538 196.5754 L703.2358 195.6651 L720.9236 192.8081 L737.8132 191.4292 L753.9048 191.5282 L769.1982 193.1052 L783.6934 196.1603 L797.3906 200.6933 L810.2897 206.7043 L822.3906 214.1933 L833.6934 223.1603 L844.1982 233.6052 L853.9048 245.5282 L862.8132 258.9292 L870.9236 273.8081 L872.5001 277.3348" clip-path="url(#clipPath2)"/>
      <path stroke-dasharray="6,2" d="M875.7651 284.6382 L875.4323 271.6425 L872.092 276.4218 L866.303 275.7237 Z" clip-path="url(#clipPath2)" stroke="none"/>
      <path fill="none" stroke-dasharray="6,2" d="M810.7983 292.6964 L814.4375 290.4219 L826.1562 286.0273 L837.875 284.5625 L849.5938 286.0273 L857.8028 289.1057 L857.8876 289.1588" clip-path="url(#clipPath2)"/>
      <path stroke-dasharray="6,2" d="M865.0407 292.741 L856.5499 282.8969 L856.9934 288.711 L852.0721 291.8384 Z" clip-path="url(#clipPath2)" stroke="none"/>
    </g>
  </g>
</svg>
