<?xml version="1.0" encoding="UTF-8"?><svg xmlns="http://www.w3.org/2000/svg" xmlns:xlink="http://www.w3.org/1999/xlink" fill-opacity="1" color-rendering="auto" color-interpolation="auto" text-rendering="auto" stroke="black" stroke-linecap="square" width="630" stroke-miterlimit="10" shape-rendering="auto" stroke-opacity="1" fill="black" stroke-dasharray="none" font-weight="normal" stroke-width="1" height="436" font-family="'Dialog'" font-style="normal" stroke-linejoin="miter" font-size="12px" stroke-dashoffset="0" image-rendering="auto">
  <!--Generated by ySVG 2.6-->
  <defs id="genericDefs"/>
  <g>
    <defs id="defs1">
      <clipPath clipPathUnits="userSpaceOnUse" id="clipPath1">
        <path d="M0 0 L630 0 L630 436 L0 436 L0 0 Z"/>
      </clipPath>
      <clipPath clipPathUnits="userSpaceOnUse" id="clipPath2">
        <path d="M-193 -38 L437 -38 L437 398 L-193 398 L-193 -38 Z"/>
      </clipPath>
    </defs>
    <g fill="white" text-rendering="geometricPrecision" shape-rendering="geometricPrecision" transform="matrix(1,0,0,1,193,38)" stroke="white">
      <circle r="25" clip-path="url(#clipPath2)" cx="156.25" cy="2" stroke="none"/>
    </g>
    <g text-rendering="geometricPrecision" stroke-miterlimit="1.45" shape-rendering="geometricPrecision" transform="matrix(1,0,0,1,193,38)" stroke-linecap="butt">
      <circle fill="none" r="25" clip-path="url(#clipPath2)" cx="156.25" cy="2"/>
      <text x="149.2981" font-size="25px" y="11.8206" clip-path="url(#clipPath2)" font-family="sans-serif" stroke="none" xml:space="preserve">1</text>
    </g>
    <g fill="white" text-rendering="geometricPrecision" shape-rendering="geometricPrecision" transform="matrix(1,0,0,1,193,38)" stroke="white">
      <circle r="25" clip-path="url(#clipPath2)" cx="43.75" cy="100" stroke="none"/>
    </g>
    <g text-rendering="geometricPrecision" stroke-miterlimit="1.45" shape-rendering="geometricPrecision" transform="matrix(1,0,0,1,193,38)" stroke-linecap="butt">
      <circle fill="none" r="25" clip-path="url(#clipPath2)" cx="43.75" cy="100"/>
      <text x="36.7981" font-size="25px" y="109.8206" clip-path="url(#clipPath2)" font-family="sans-serif" stroke="none" xml:space="preserve">2</text>
    </g>
    <g fill="white" text-rendering="geometricPrecision" shape-rendering="geometricPrecision" transform="matrix(1,0,0,1,193,38)" stroke="white">
      <circle r="25" clip-path="url(#clipPath2)" cx="250" cy="100" stroke="none"/>
    </g>
    <g text-rendering="geometricPrecision" stroke-miterlimit="1.45" shape-rendering="geometricPrecision" transform="matrix(1,0,0,1,193,38)" stroke-linecap="butt">
      <circle fill="none" r="25" clip-path="url(#clipPath2)" cx="250" cy="100"/>
      <text x="243.0481" font-size="25px" y="109.8206" clip-path="url(#clipPath2)" font-family="sans-serif" stroke="none" xml:space="preserve">4</text>
    </g>
    <g fill="white" text-rendering="geometricPrecision" shape-rendering="geometricPrecision" transform="matrix(1,0,0,1,193,38)" stroke="white">
      <circle r="25" clip-path="url(#clipPath2)" cx="156.25" cy="100" stroke="none"/>
    </g>
    <g text-rendering="geometricPrecision" stroke-miterlimit="1.45" shape-rendering="geometricPrecision" transform="matrix(1,0,0,1,193,38)" stroke-linecap="butt">
      <circle fill="none" r="25" clip-path="url(#clipPath2)" cx="156.25" cy="100"/>
      <text x="149.2981" font-size="25px" y="109.8206" clip-path="url(#clipPath2)" font-family="sans-serif" stroke="none" xml:space="preserve">3</text>
    </g>
    <g fill="white" text-rendering="geometricPrecision" shape-rendering="geometricPrecision" transform="matrix(1,0,0,1,193,38)" stroke="white">
      <circle r="25" clip-path="url(#clipPath2)" cx="6.25" cy="198" stroke="none"/>
    </g>
    <g text-rendering="geometricPrecision" stroke-miterlimit="1.45" shape-rendering="geometricPrecision" transform="matrix(1,0,0,1,193,38)" stroke-linecap="butt">
      <circle fill="none" r="25" clip-path="url(#clipPath2)" cx="6.25" cy="198"/>
      <text x="-0.7019" font-size="25px" y="207.8206" clip-path="url(#clipPath2)" font-family="sans-serif" stroke="none" xml:space="preserve">5</text>
    </g>
    <g fill="white" text-rendering="geometricPrecision" shape-rendering="geometricPrecision" transform="matrix(1,0,0,1,193,38)" stroke="white">
      <circle r="25" clip-path="url(#clipPath2)" cx="81.25" cy="198" stroke="none"/>
    </g>
    <g text-rendering="geometricPrecision" stroke-miterlimit="1.45" shape-rendering="geometricPrecision" transform="matrix(1,0,0,1,193,38)" stroke-linecap="butt">
      <circle fill="none" r="25" clip-path="url(#clipPath2)" cx="81.25" cy="198"/>
      <text x="74.2981" font-size="25px" y="207.8206" clip-path="url(#clipPath2)" font-family="sans-serif" stroke="none" xml:space="preserve">6</text>
    </g>
    <g fill="white" text-rendering="geometricPrecision" shape-rendering="geometricPrecision" transform="matrix(1,0,0,1,193,38)" stroke="white">
      <circle r="25" clip-path="url(#clipPath2)" cx="156.25" cy="198" stroke="none"/>
    </g>
    <g text-rendering="geometricPrecision" stroke-miterlimit="1.45" shape-rendering="geometricPrecision" transform="matrix(1,0,0,1,193,38)" stroke-linecap="butt">
      <circle fill="none" r="25" clip-path="url(#clipPath2)" cx="156.25" cy="198"/>
      <text x="149.2981" font-size="25px" y="207.8206" clip-path="url(#clipPath2)" font-family="sans-serif" stroke="none" xml:space="preserve">7</text>
      <text x="140.4131" xml:space="preserve" y="-3.2861" clip-path="url(#clipPath2)" font-family="sans-serif" stroke="none">0</text>
      <text x="30.4131" xml:space="preserve" y="94.7139" clip-path="url(#clipPath2)" font-family="sans-serif" stroke="none">1</text>
      <text x="-9.5869" xml:space="preserve" y="192.7139" clip-path="url(#clipPath2)" font-family="sans-serif" stroke="none">2</text>
      <text x="140.4131" xml:space="preserve" y="94.7139" clip-path="url(#clipPath2)" font-family="sans-serif" stroke="none">4</text>
      <text x="140.4131" xml:space="preserve" y="192.7139" clip-path="url(#clipPath2)" font-family="sans-serif" stroke="none">5</text>
      <text x="65.4131" xml:space="preserve" y="192.7139" clip-path="url(#clipPath2)" font-family="sans-serif" stroke="none">3</text>
      <text x="234.1631" xml:space="preserve" y="94.7139" clip-path="url(#clipPath2)" font-family="sans-serif" stroke="none">6</text>
    </g>
    <g fill="white" text-rendering="geometricPrecision" shape-rendering="geometricPrecision" transform="matrix(1,0,0,1,193,38)" stroke="white">
      <circle r="25" clip-path="url(#clipPath2)" cx="-150.25" cy="296" stroke="none"/>
    </g>
    <g text-rendering="geometricPrecision" stroke-miterlimit="1.45" shape-rendering="geometricPrecision" transform="matrix(1,0,0,1,193,38)" stroke-linecap="butt">
      <circle fill="none" r="25" clip-path="url(#clipPath2)" cx="-150.25" cy="296"/>
      <text x="-157.2019" font-size="25px" y="305.8206" clip-path="url(#clipPath2)" font-family="sans-serif" stroke="none" xml:space="preserve">1</text>
    </g>
    <g fill="white" text-rendering="geometricPrecision" shape-rendering="geometricPrecision" transform="matrix(1,0,0,1,193,38)" stroke="white">
      <circle r="25" clip-path="url(#clipPath2)" cx="-60.75" cy="296" stroke="none"/>
    </g>
    <g text-rendering="geometricPrecision" stroke-miterlimit="1.45" shape-rendering="geometricPrecision" transform="matrix(1,0,0,1,193,38)" stroke-linecap="butt">
      <circle fill="none" r="25" clip-path="url(#clipPath2)" cx="-60.75" cy="296"/>
      <text x="-67.7019" font-size="25px" y="305.8206" clip-path="url(#clipPath2)" font-family="sans-serif" stroke="none" xml:space="preserve">2</text>
    </g>
    <g fill="white" text-rendering="geometricPrecision" shape-rendering="geometricPrecision" transform="matrix(1,0,0,1,193,38)" stroke="white">
      <circle r="25" clip-path="url(#clipPath2)" cx="396.75" cy="296" stroke="none"/>
    </g>
    <g text-rendering="geometricPrecision" stroke-miterlimit="1.45" shape-rendering="geometricPrecision" transform="matrix(1,0,0,1,193,38)" stroke-linecap="butt">
      <circle fill="none" r="25" clip-path="url(#clipPath2)" cx="396.75" cy="296"/>
      <text x="389.7981" font-size="25px" y="305.8206" clip-path="url(#clipPath2)" font-family="sans-serif" stroke="none" xml:space="preserve">4</text>
    </g>
    <g fill="white" text-rendering="geometricPrecision" shape-rendering="geometricPrecision" transform="matrix(1,0,0,1,193,38)" stroke="white">
      <circle r="25" clip-path="url(#clipPath2)" cx="212.75" cy="296" stroke="none"/>
    </g>
    <g text-rendering="geometricPrecision" stroke-miterlimit="1.45" shape-rendering="geometricPrecision" transform="matrix(1,0,0,1,193,38)" stroke-linecap="butt">
      <circle fill="none" r="25" clip-path="url(#clipPath2)" cx="212.75" cy="296"/>
      <text x="205.7981" font-size="25px" y="305.8206" clip-path="url(#clipPath2)" font-family="sans-serif" stroke="none" xml:space="preserve">3</text>
    </g>
    <g fill="white" text-rendering="geometricPrecision" shape-rendering="geometricPrecision" transform="matrix(1,0,0,1,193,38)" stroke="white">
      <circle r="25" clip-path="url(#clipPath2)" cx="28.75" cy="296" stroke="none"/>
    </g>
    <g text-rendering="geometricPrecision" stroke-miterlimit="1.45" shape-rendering="geometricPrecision" transform="matrix(1,0,0,1,193,38)" stroke-linecap="butt">
      <circle fill="none" r="25" clip-path="url(#clipPath2)" cx="28.75" cy="296"/>
      <text x="21.7981" font-size="25px" y="305.8206" clip-path="url(#clipPath2)" font-family="sans-serif" stroke="none" xml:space="preserve">5</text>
    </g>
    <g fill="white" text-rendering="geometricPrecision" shape-rendering="geometricPrecision" transform="matrix(1,0,0,1,193,38)" stroke="white">
      <circle r="25" clip-path="url(#clipPath2)" cx="120.75" cy="296" stroke="none"/>
    </g>
    <g text-rendering="geometricPrecision" stroke-miterlimit="1.45" shape-rendering="geometricPrecision" transform="matrix(1,0,0,1,193,38)" stroke-linecap="butt">
      <circle fill="none" r="25" clip-path="url(#clipPath2)" cx="120.75" cy="296"/>
      <text x="113.7981" font-size="25px" y="305.8206" clip-path="url(#clipPath2)" font-family="sans-serif" stroke="none" xml:space="preserve">6</text>
    </g>
    <g fill="white" text-rendering="geometricPrecision" shape-rendering="geometricPrecision" transform="matrix(1,0,0,1,193,38)" stroke="white">
      <circle r="25" clip-path="url(#clipPath2)" cx="304.75" cy="296" stroke="none"/>
    </g>
    <g text-rendering="geometricPrecision" stroke-miterlimit="1.45" shape-rendering="geometricPrecision" transform="matrix(1,0,0,1,193,38)" stroke-linecap="butt">
      <circle fill="none" r="25" clip-path="url(#clipPath2)" cx="304.75" cy="296"/>
      <text x="297.7981" font-size="25px" y="305.8206" clip-path="url(#clipPath2)" font-family="sans-serif" stroke="none" xml:space="preserve">7</text>
      <text x="-166.0869" xml:space="preserve" y="290.7139" clip-path="url(#clipPath2)" font-family="sans-serif" stroke="none">0</text>
      <text x="-74.0869" xml:space="preserve" y="290.7139" clip-path="url(#clipPath2)" font-family="sans-serif" stroke="none">1</text>
      <text x="12.9131" xml:space="preserve" y="290.7139" clip-path="url(#clipPath2)" font-family="sans-serif" stroke="none">2</text>
      <text x="196.9131" xml:space="preserve" y="290.7139" clip-path="url(#clipPath2)" font-family="sans-serif" stroke="none">4</text>
      <text x="288.9131" xml:space="preserve" y="290.7139" clip-path="url(#clipPath2)" font-family="sans-serif" stroke="none">5</text>
      <text x="104.9131" xml:space="preserve" y="290.7139" clip-path="url(#clipPath2)" font-family="sans-serif" stroke="none">3</text>
      <text x="380.9131" xml:space="preserve" y="290.7139" clip-path="url(#clipPath2)" font-family="sans-serif" stroke="none">6</text>
      <path fill="none" d="M137.3993 18.4211 L68.6329 78.3242" clip-path="url(#clipPath2)" stroke="rgb(153,153,153)"/>
      <path fill="rgb(153,153,153)" d="M62.6007 83.5789 L74.9333 79.467 L69.387 77.6674 L68.3648 71.9267 Z" clip-path="url(#clipPath2)" stroke="none"/>
      <path fill="none" d="M173.5316 20.065 L227.1883 76.1541" clip-path="url(#clipPath2)" stroke="rgb(153,153,153)"/>
      <path fill="rgb(153,153,153)" d="M232.7184 81.935 L228.0362 69.8074 L226.497 75.4315 L220.8102 76.72 Z" clip-path="url(#clipPath2)" stroke="none"/>
      <path fill="none" d="M156.25 27 L156.25 67" clip-path="url(#clipPath2)" stroke="rgb(153,153,153)"/>
      <path fill="rgb(153,153,153)" d="M156.25 75 L161.25 63 L156.25 66 L151.25 63 Z" clip-path="url(#clipPath2)" stroke="none"/>
      <path fill="none" d="M34.8154 123.349 L18.0436 167.1794" clip-path="url(#clipPath2)" stroke="rgb(153,153,153)"/>
      <path fill="rgb(153,153,153)" d="M15.1845 174.651 L24.1429 165.2305 L18.401 166.2454 L14.8033 161.6566 Z" clip-path="url(#clipPath2)" stroke="none"/>
      <path fill="none" d="M52.6846 123.349 L69.4564 167.1794" clip-path="url(#clipPath2)" stroke="rgb(153,153,153)"/>
      <path fill="rgb(153,153,153)" d="M72.3155 174.651 L72.6966 161.6566 L69.099 166.2454 L63.3571 165.2305 Z" clip-path="url(#clipPath2)" stroke="none"/>
      <path fill="none" d="M156.25 125 L156.25 165" clip-path="url(#clipPath2)" stroke="rgb(153,153,153)"/>
      <path fill="rgb(153,153,153)" d="M156.25 173 L161.25 161 L156.25 164 L151.25 161 Z" clip-path="url(#clipPath2)" stroke="none"/>
      <path fill="none" stroke-dasharray="6,2" d="M128.7546 -7.627 L119.621 -7.3999 L98.4575 -3.4712 L88.9877 -0.2587 L80.2593 3.786 L72.2723 8.6628 L65.0266 14.3717 L58.5223 20.9128 L52.7593 28.286 L47.7377 36.4913 L43.4575 45.5288 L37.121 66.1001 L36.9623 67.2254" clip-path="url(#clipPath2)"/>
      <path stroke-dasharray="6,2" d="M35.845 75.147 L42.472 63.963 L37.102 66.2352 L32.57 62.5663 Z" clip-path="url(#clipPath2)" stroke="none"/>
      <path fill="none" stroke-dasharray="6,2" d="M20.4887 97.0098 L18.4943 98.064 L6.1688 107.324 L-3.2265 117.78 L-9.6916 129.432 L-13.2265 142.28 L-13.8312 156.324 L-12.3752 165.8656 L-12.3448 165.9608" clip-path="url(#clipPath2)"/>
      <path stroke-dasharray="6,2" d="M-10.7994 173.8102 L-8.2116 161.0703 L-12.538 164.9797 L-18.0233 163.002 Z" clip-path="url(#clipPath2)" stroke="none"/>
      <path fill="none" stroke-dasharray="6,2" d="M134.6146 101.8973 L134.3438 102.25 L127.625 114.5 L123.5938 126.75 L122.25 139 L123.5938 151.25 L127.625 163.5 L130.7082 169.1214 L130.7691 169.2007" clip-path="url(#clipPath2)"/>
      <path stroke-dasharray="6,2" d="M134.6628 176.1892 L133.19 163.2729 L130.2823 168.3271 L124.4544 168.14 Z" clip-path="url(#clipPath2)" stroke="none"/>
      <path fill="none" stroke-dasharray="6,2" d="M-0.2655 201.7545 L3.125 209.5469 L12.5 224.9375 L17.1875 230.3242 L21.875 234.1719 L26.5625 236.4805 L31.25 237.25 L35.9375 236.4805 L40.625 234.1719 L45.3125 230.3242 L50 224.9375 L59.375 209.5469 L59.5737 209.0902" clip-path="url(#clipPath2)"/>
      <path stroke-dasharray="6,2" d="M62.7655 201.7545 L53.393 210.7632 L59.1747 210.0071 L62.5626 214.7529 Z" clip-path="url(#clipPath2)" stroke="none"/>
      <path fill="none" stroke-dasharray="6,2" d="M72.4553 173.4648 L72.8934 171.7462 L78.5315 156.6364 L85.6644 142.6704 L94.292 129.8485 L104.4144 118.1704 L116.0315 107.6364 L124.0747 101.8761 L124.1618 101.827" clip-path="url(#clipPath2)"/>
      <path stroke-dasharray="6,2" d="M130.7701 97.3181 L118.0396 99.9512 L123.3358 102.3906 L123.6757 108.2116 Z" clip-path="url(#clipPath2)" stroke="none"/>
      <path fill="none" stroke-dasharray="6,2" d="M158.4299 184.9179 L163.8605 183.7778 L181.5733 177.2619 L196.8885 168.4524 L209.8061 157.3492 L220.326 143.9524 L228.4483 128.2619 L233.424 112.6306 L233.4402 112.532" clip-path="url(#clipPath2)"/>
      <path stroke-dasharray="6,2" d="M235.092 104.7043 L227.722 115.4134 L233.2337 113.5104 L237.5066 117.4781 Z" clip-path="url(#clipPath2)" stroke="none"/>
      <path fill="none" d="M-128.7305 308.7244 L-116.0625 316.2148 L-81.875 333.7344 L-47.6875 348.5586 L-13.5 360.6875 L20.6875 370.1211 L54.875 376.8594 L89.0625 380.9023 L123.25 382.25 L157.4375 380.9023 L191.625 376.8594 L225.8125 370.1211 L260 360.6875 L294.1875 348.5586 L328.375 333.7344 L362.5625 316.2148 L368.3442 312.7961" clip-path="url(#clipPath2)" stroke="rgb(153,153,153)"/>
      <path fill="rgb(153,153,153)" d="M375.2305 308.7244 L362.3562 310.5281 L367.4834 313.3051 L367.4459 319.136 Z" clip-path="url(#clipPath2)" stroke="none"/>
      <path fill="none" d="M-128.8293 308.89 L-127.5625 309.6523 L-104.875 321.4844 L-82.1875 331.4961 L-59.5 339.6875 L-36.8125 346.0586 L-14.125 350.6094 L8.5625 353.3398 L31.25 354.25 L53.9375 353.3398 L76.625 350.6094 L99.3125 346.0586 L122 339.6875 L144.6875 331.4961 L167.375 321.4844 L184.2781 312.669 L184.3638 312.6175" clip-path="url(#clipPath2)" stroke="rgb(153,153,153)"/>
      <path fill="rgb(153,153,153)" d="M191.4174 308.8429 L178.4779 310.0963 L183.4821 313.0893 L183.1961 318.9132 Z" clip-path="url(#clipPath2)" stroke="none"/>
      <path fill="none" d="M-41.6744 312.1992 L-38.375 314.4688 L-27.1875 319.0859 L-16 320.625 L-4.8125 319.0859 L2.6404 316.01 L2.7228 315.9534" clip-path="url(#clipPath2)" stroke="rgb(153,153,153)"/>
      <path fill="rgb(153,153,153)" d="M9.7619 312.152 L-3.1726 313.4546 L1.8429 316.4286 L1.5791 322.2535 Z" clip-path="url(#clipPath2)" stroke="none"/>
      <path fill="none" d="M-41.9398 312.4252 L-38.0625 315.5234 L-26.7188 323.1934 L-15.375 329.4688 L-4.0312 334.3496 L7.3125 337.8359 L18.6562 339.9277 L30 340.625 L41.3438 339.9277 L52.6875 337.8359 L64.0312 334.3496 L75.375 329.4688 L86.7188 323.1934 L95.5417 317.2278 L95.6198 317.1654" clip-path="url(#clipPath2)" stroke="rgb(153,153,153)"/>
      <path fill="rgb(153,153,153)" d="M102.0197 312.3653 L89.4198 315.5656 L94.8198 317.7654 L95.42 323.5654 Z" clip-path="url(#clipPath2)" stroke="none"/>
      <path fill="none" d="M230.5166 313.6259 L235.75 317.75 L247.25 323.1875 L258.75 325 L270.25 323.1875 L280.5154 318.3338 L280.5939 318.2719" clip-path="url(#clipPath2)" stroke="rgb(153,153,153)"/>
      <path fill="rgb(153,153,153)" d="M287.0642 313.5671 L274.4182 316.5803 L279.7851 318.86 L280.2992 324.6682 Z" clip-path="url(#clipPath2)" stroke="none"/>
      <path fill="none" stroke-dasharray="6,2" d="M-151.6158 275.9487 L-151.25 275.6185 L-139.75 268.2032 L-128.25 263.754 L-116.75 262.2709 L-105.25 263.754 L-93.75 268.2032 L-88.5644 271.5469 L-88.4902 271.614" clip-path="url(#clipPath2)"/>
      <path stroke-dasharray="6,2" d="M-81.8016 276.0029 L-89.0913 265.2391 L-89.3262 271.0653 L-94.5776 273.5998 Z" clip-path="url(#clipPath2)" stroke="none"/>
      <path fill="none" d="M-128.9307 309.0577 L-128.3839 309.3292 L-117.9486 312.0364 L-107.8452 312.1055 L-98.0736 309.5364 L-88.6339 304.3292 L-86.6191 302.5936" clip-path="url(#clipPath2)" stroke="rgb(153,153,153)"/>
      <path fill="rgb(153,153,153)" d="M-80.5578 297.3724 L-92.913 301.4159 L-87.3767 303.2462 L-86.3865 308.9925 Z" clip-path="url(#clipPath2)" stroke="none"/>
      <path fill="none" stroke-dasharray="6,2" d="M-59.2378 276.3416 L-49 270.1078 L-38.125 266.1348 L-27.25 264.8104 L-16.375 266.1348 L-5.5 270.1078 L-2.0952 272.181" clip-path="url(#clipPath2)"/>
      <path stroke-dasharray="6,2" d="M4.7378 276.3416 L-2.9113 265.8301 L-2.9493 271.6609 L-8.112 274.3713 Z" clip-path="url(#clipPath2)" stroke="none"/>
      <path fill="none" stroke-dasharray="6,2" d="M210.9517 275.4894 L211.75 274.7054 L223.25 266.6378 L234.75 261.7972 L246.25 260.1837 L257.75 261.7972 L269.25 266.6378 L275.1062 270.746 L275.1775 270.8161" clip-path="url(#clipPath2)"/>
      <path stroke-dasharray="6,2" d="M281.6281 275.5479 L274.9096 264.4186 L274.3712 270.2246 L268.9948 272.4818 Z" clip-path="url(#clipPath2)" stroke="none"/>
      <path fill="none" stroke-dasharray="6,2" d="M27.9521 276.6558 L39.25 270.18 L50.75 266.225 L62.25 264.9067 L73.75 266.225 L85.25 270.18 L89.6072 272.6775" clip-path="url(#clipPath2)"/>
      <path stroke-dasharray="6,2" d="M96.5479 276.6558 L88.6233 266.3504 L88.7396 272.1802 L83.6504 275.0262 Z" clip-path="url(#clipPath2)" stroke="none"/>
      <path fill="none" stroke-dasharray="6,2" d="M119.4907 276.0678 L119.75 275.8387 L131.25 268.5806 L142.75 264.2257 L154.25 262.7741 L165.75 264.2257 L177.25 268.5806 L182.2738 271.7513 L182.3488 271.8175" clip-path="url(#clipPath2)"/>
      <path stroke-dasharray="6,2" d="M189.0927 276.121 L181.6665 265.4509 L181.5058 271.2796 L176.2871 273.8807 Z" clip-path="url(#clipPath2)" stroke="none"/>
      <path fill="none" stroke-dasharray="6,2" d="M303.5401 276.1241 L303.75 275.9404 L315.25 268.755 L326.75 264.4438 L338.25 263.0067 L349.75 264.4438 L361.25 268.755 L366.1991 271.8473 L366.2743 271.9131" clip-path="url(#clipPath2)"/>
      <path stroke-dasharray="6,2" d="M373.0435 276.1767 L365.5545 265.5506 L365.4282 271.3802 L360.225 274.0121 Z" clip-path="url(#clipPath2)" stroke="none"/>
    </g>
  </g>
</svg>
