<?xml version="1.0" encoding="UTF-8"?><svg xmlns="http://www.w3.org/2000/svg" xmlns:xlink="http://www.w3.org/1999/xlink" fill-opacity="1" color-rendering="auto" color-interpolation="auto" text-rendering="auto" stroke="black" stroke-linecap="square" width="324" stroke-miterlimit="10" shape-rendering="auto" stroke-opacity="1" fill="black" stroke-dasharray="none" font-weight="normal" stroke-width="1" height="276" font-family="'Dialog'" font-style="normal" stroke-linejoin="miter" font-size="12px" stroke-dashoffset="0" image-rendering="auto">
  <!--Generated by ySVG 2.6-->
  <defs id="genericDefs"/>
  <g>
    <defs id="defs1">
      <clipPath clipPathUnits="userSpaceOnUse" id="clipPath1">
        <path d="M0 0 L324 0 L324 276 L0 276 L0 0 Z"/>
      </clipPath>
      <clipPath clipPathUnits="userSpaceOnUse" id="clipPath2">
        <path d="M-349 -38 L-25 -38 L-25 238 L-349 238 L-349 -38 Z"/>
      </clipPath>
    </defs>
    <g fill="rgb(248,248,248)" text-rendering="geometricPrecision" shape-rendering="geometricPrecision" transform="translate(349,38)" stroke="rgb(248,248,248)">
      <rect x="-349" width="324" height="276" y="-38" clip-path="url(#clipPath2)" stroke="none"/>
    </g>
    <g fill="white" text-rendering="geometricPrecision" shape-rendering="geometricPrecision" transform="matrix(1,0,0,1,349,38)" stroke="white">
      <circle r="25" clip-path="url(#clipPath2)" cx="-159" cy="2" stroke="none"/>
    </g>
    <g text-rendering="geometricPrecision" stroke-miterlimit="1.45" shape-rendering="geometricPrecision" transform="matrix(1,0,0,1,349,38)" stroke-linecap="butt">
      <circle fill="none" r="25" clip-path="url(#clipPath2)" cx="-159" cy="2"/>
      <text x="-165.9519" font-size="25px" y="11.8206" clip-path="url(#clipPath2)" font-family="sans-serif" stroke="none" xml:space="preserve">1</text>
    </g>
    <g fill="white" text-rendering="geometricPrecision" shape-rendering="geometricPrecision" transform="matrix(1,0,0,1,349,38)" stroke="white">
      <circle r="25" clip-path="url(#clipPath2)" cx="-271.5" cy="100" stroke="none"/>
    </g>
    <g text-rendering="geometricPrecision" stroke-miterlimit="1.45" shape-rendering="geometricPrecision" transform="matrix(1,0,0,1,349,38)" stroke-linecap="butt">
      <circle fill="none" r="25" clip-path="url(#clipPath2)" cx="-271.5" cy="100"/>
      <text x="-278.4519" font-size="25px" y="109.8206" clip-path="url(#clipPath2)" font-family="sans-serif" stroke="none" xml:space="preserve">2</text>
    </g>
    <g fill="white" text-rendering="geometricPrecision" shape-rendering="geometricPrecision" transform="matrix(1,0,0,1,349,38)" stroke="white">
      <circle r="25" clip-path="url(#clipPath2)" cx="-65.25" cy="100" stroke="none"/>
    </g>
    <g text-rendering="geometricPrecision" stroke-miterlimit="1.45" shape-rendering="geometricPrecision" transform="matrix(1,0,0,1,349,38)" stroke-linecap="butt">
      <circle fill="none" r="25" clip-path="url(#clipPath2)" cx="-65.25" cy="100"/>
      <text x="-72.2019" font-size="25px" y="109.8206" clip-path="url(#clipPath2)" font-family="sans-serif" stroke="none" xml:space="preserve">4</text>
    </g>
    <g fill="white" text-rendering="geometricPrecision" shape-rendering="geometricPrecision" transform="matrix(1,0,0,1,349,38)" stroke="white">
      <circle r="25" clip-path="url(#clipPath2)" cx="-159" cy="100" stroke="none"/>
    </g>
    <g text-rendering="geometricPrecision" stroke-miterlimit="1.45" shape-rendering="geometricPrecision" transform="matrix(1,0,0,1,349,38)" stroke-linecap="butt">
      <circle fill="none" r="25" clip-path="url(#clipPath2)" cx="-159" cy="100"/>
      <text x="-165.9519" font-size="25px" y="109.8206" clip-path="url(#clipPath2)" font-family="sans-serif" stroke="none" xml:space="preserve">3</text>
    </g>
    <g fill="white" text-rendering="geometricPrecision" shape-rendering="geometricPrecision" transform="matrix(1,0,0,1,349,38)" stroke="white">
      <circle r="25" clip-path="url(#clipPath2)" cx="-309" cy="198" stroke="none"/>
    </g>
    <g text-rendering="geometricPrecision" stroke-miterlimit="1.45" shape-rendering="geometricPrecision" transform="matrix(1,0,0,1,349,38)" stroke-linecap="butt">
      <circle fill="none" r="25" clip-path="url(#clipPath2)" cx="-309" cy="198"/>
      <text x="-315.9519" font-size="25px" y="207.8206" clip-path="url(#clipPath2)" font-family="sans-serif" stroke="none" xml:space="preserve">5</text>
    </g>
    <g fill="white" text-rendering="geometricPrecision" shape-rendering="geometricPrecision" transform="matrix(1,0,0,1,349,38)" stroke="white">
      <circle r="25" clip-path="url(#clipPath2)" cx="-234" cy="198" stroke="none"/>
    </g>
    <g text-rendering="geometricPrecision" stroke-miterlimit="1.45" shape-rendering="geometricPrecision" transform="matrix(1,0,0,1,349,38)" stroke-linecap="butt">
      <circle fill="none" r="25" clip-path="url(#clipPath2)" cx="-234" cy="198"/>
      <text x="-240.9519" font-size="25px" y="207.8206" clip-path="url(#clipPath2)" font-family="sans-serif" stroke="none" xml:space="preserve">6</text>
    </g>
    <g fill="white" text-rendering="geometricPrecision" shape-rendering="geometricPrecision" transform="matrix(1,0,0,1,349,38)" stroke="white">
      <circle r="25" clip-path="url(#clipPath2)" cx="-159" cy="198" stroke="none"/>
    </g>
    <g text-rendering="geometricPrecision" stroke-miterlimit="1.45" shape-rendering="geometricPrecision" transform="matrix(1,0,0,1,349,38)" stroke-linecap="butt">
      <circle fill="none" r="25" clip-path="url(#clipPath2)" cx="-159" cy="198"/>
      <text x="-165.9519" font-size="25px" y="207.8206" clip-path="url(#clipPath2)" font-family="sans-serif" stroke="none" xml:space="preserve">7</text>
      <path fill="none" d="M-177.8507 18.4211 L-246.6171 78.3242" clip-path="url(#clipPath2)"/>
      <path d="M-252.6493 83.5789 L-240.3167 79.467 L-245.8631 77.6674 L-246.8852 71.9267 Z" clip-path="url(#clipPath2)" stroke="none"/>
      <path fill="none" d="M-141.7184 20.065 L-88.0617 76.1541" clip-path="url(#clipPath2)"/>
      <path d="M-82.5316 81.935 L-87.2138 69.8074 L-88.753 75.4315 L-94.4398 76.72 Z" clip-path="url(#clipPath2)" stroke="none"/>
      <path fill="none" d="M-159 27 L-159 67" clip-path="url(#clipPath2)"/>
      <path d="M-159 75 L-154 63 L-159 66 L-164 63 Z" clip-path="url(#clipPath2)" stroke="none"/>
      <path fill="none" d="M-280.4345 123.349 L-297.2064 167.1794" clip-path="url(#clipPath2)"/>
      <path d="M-300.0655 174.651 L-291.1071 165.2305 L-296.849 166.2454 L-300.4467 161.6566 Z" clip-path="url(#clipPath2)" stroke="none"/>
      <path fill="none" d="M-262.5655 123.349 L-245.7936 167.1794" clip-path="url(#clipPath2)"/>
      <path d="M-242.9346 174.651 L-242.5533 161.6566 L-246.151 166.2454 L-251.8929 165.2305 Z" clip-path="url(#clipPath2)" stroke="none"/>
      <path fill="none" d="M-159 125 L-159 165" clip-path="url(#clipPath2)"/>
      <path d="M-159 173 L-154 161 L-159 164 L-164 161 Z" clip-path="url(#clipPath2)" stroke="none"/>
    </g>
  </g>
</svg>
