<?xml version="1.0" encoding="UTF-8"?><svg xmlns="http://www.w3.org/2000/svg" xmlns:xlink="http://www.w3.org/1999/xlink" fill-opacity="1" color-rendering="auto" color-interpolation="auto" text-rendering="auto" stroke="black" stroke-linecap="square" width="353" stroke-miterlimit="10" shape-rendering="auto" stroke-opacity="1" fill="black" stroke-dasharray="none" font-weight="normal" stroke-width="1" height="280" font-family="'Dialog'" font-style="normal" stroke-linejoin="miter" font-size="12px" stroke-dashoffset="0" image-rendering="auto">
  <!--Generated by ySVG 2.6-->
  <defs id="genericDefs"/>
  <g>
    <defs id="defs1">
      <clipPath clipPathUnits="userSpaceOnUse" id="clipPath1">
        <path d="M0 0 L353 0 L353 280 L0 280 L0 0 Z"/>
      </clipPath>
      <clipPath clipPathUnits="userSpaceOnUse" id="clipPath2">
        <path d="M-39 -15 L314 -15 L314 265 L-39 265 L-39 -15 Z"/>
      </clipPath>
    </defs>
    <g fill="white" text-rendering="geometricPrecision" shape-rendering="geometricPrecision" transform="matrix(1,0,0,1,39,15)" stroke="white">
      <circle r="25" clip-path="url(#clipPath2)" cx="156.25" cy="25" stroke="none"/>
    </g>
    <g text-rendering="geometricPrecision" stroke-miterlimit="1.45" shape-rendering="geometricPrecision" transform="matrix(1,0,0,1,39,15)" stroke-linecap="butt">
      <circle fill="none" r="25" clip-path="url(#clipPath2)" cx="156.25" cy="25"/>
      <text x="149.2981" font-size="25px" y="34.8206" clip-path="url(#clipPath2)" font-family="sans-serif" stroke="none" xml:space="preserve">1</text>
    </g>
    <g fill="white" text-rendering="geometricPrecision" shape-rendering="geometricPrecision" transform="matrix(1,0,0,1,39,15)" stroke="white">
      <circle r="25" clip-path="url(#clipPath2)" cx="38.75" cy="125" stroke="none"/>
    </g>
    <g text-rendering="geometricPrecision" stroke-miterlimit="1.45" shape-rendering="geometricPrecision" transform="matrix(1,0,0,1,39,15)" stroke-linecap="butt">
      <circle fill="none" r="25" clip-path="url(#clipPath2)" cx="38.75" cy="125"/>
      <text x="31.7981" font-size="25px" y="134.8206" clip-path="url(#clipPath2)" font-family="sans-serif" stroke="none" xml:space="preserve">2</text>
    </g>
    <g fill="white" text-rendering="geometricPrecision" shape-rendering="geometricPrecision" transform="matrix(1,0,0,1,39,15)" stroke="white">
      <circle r="25" clip-path="url(#clipPath2)" cx="273.75" cy="125" stroke="none"/>
    </g>
    <g text-rendering="geometricPrecision" stroke-miterlimit="1.45" shape-rendering="geometricPrecision" transform="matrix(1,0,0,1,39,15)" stroke-linecap="butt">
      <circle fill="none" r="25" clip-path="url(#clipPath2)" cx="273.75" cy="125"/>
      <text x="266.7981" font-size="25px" y="134.8206" clip-path="url(#clipPath2)" font-family="sans-serif" stroke="none" xml:space="preserve">4</text>
    </g>
    <g fill="white" text-rendering="geometricPrecision" shape-rendering="geometricPrecision" transform="matrix(1,0,0,1,39,15)" stroke="white">
      <circle r="25" clip-path="url(#clipPath2)" cx="156.25" cy="125" stroke="none"/>
    </g>
    <g text-rendering="geometricPrecision" stroke-miterlimit="1.45" shape-rendering="geometricPrecision" transform="matrix(1,0,0,1,39,15)" stroke-linecap="butt">
      <circle fill="none" r="25" clip-path="url(#clipPath2)" cx="156.25" cy="125"/>
      <text x="149.2981" font-size="25px" y="134.8206" clip-path="url(#clipPath2)" font-family="sans-serif" stroke="none" xml:space="preserve">3</text>
    </g>
    <g fill="white" text-rendering="geometricPrecision" shape-rendering="geometricPrecision" transform="matrix(1,0,0,1,39,15)" stroke="white">
      <circle r="25" clip-path="url(#clipPath2)" cx="1.25" cy="225" stroke="none"/>
    </g>
    <g text-rendering="geometricPrecision" stroke-miterlimit="1.45" shape-rendering="geometricPrecision" transform="matrix(1,0,0,1,39,15)" stroke-linecap="butt">
      <circle fill="none" r="25" clip-path="url(#clipPath2)" cx="1.25" cy="225"/>
      <text x="-5.7019" font-size="25px" y="234.8206" clip-path="url(#clipPath2)" font-family="sans-serif" stroke="none" xml:space="preserve">5</text>
    </g>
    <g fill="white" text-rendering="geometricPrecision" shape-rendering="geometricPrecision" transform="matrix(1,0,0,1,39,15)" stroke="white">
      <circle r="25" clip-path="url(#clipPath2)" cx="76.25" cy="225" stroke="none"/>
    </g>
    <g text-rendering="geometricPrecision" stroke-miterlimit="1.45" shape-rendering="geometricPrecision" transform="matrix(1,0,0,1,39,15)" stroke-linecap="butt">
      <circle fill="none" r="25" clip-path="url(#clipPath2)" cx="76.25" cy="225"/>
      <text x="69.2981" font-size="25px" y="234.8206" clip-path="url(#clipPath2)" font-family="sans-serif" stroke="none" xml:space="preserve">6</text>
    </g>
    <g fill="white" text-rendering="geometricPrecision" shape-rendering="geometricPrecision" transform="matrix(1,0,0,1,39,15)" stroke="white">
      <circle r="25" clip-path="url(#clipPath2)" cx="156.25" cy="225" stroke="none"/>
    </g>
    <g text-rendering="geometricPrecision" stroke-miterlimit="1.45" shape-rendering="geometricPrecision" transform="matrix(1,0,0,1,39,15)" stroke-linecap="butt">
      <circle fill="none" r="25" clip-path="url(#clipPath2)" cx="156.25" cy="225"/>
      <text x="149.2981" font-size="25px" y="234.8206" clip-path="url(#clipPath2)" font-family="sans-serif" stroke="none" xml:space="preserve">7</text>
      <path fill="none" d="M137.2115 41.203 L63.8808 103.6121" clip-path="url(#clipPath2)"/>
      <path d="M57.7885 108.797 L70.1675 104.8273 L64.6423 102.964 L63.6864 97.2119 Z" clip-path="url(#clipPath2)" stroke="none"/>
      <path fill="none" d="M175.2885 41.203 L248.6192 103.6121" clip-path="url(#clipPath2)"/>
      <path d="M254.7115 108.797 L248.8136 97.2119 L247.8577 102.964 L242.3325 104.8273 Z" clip-path="url(#clipPath2)" stroke="none"/>
      <path fill="none" d="M156.25 50 L156.25 92" clip-path="url(#clipPath2)"/>
      <path d="M156.25 100 L161.25 88 L156.25 91 L151.25 88 Z" clip-path="url(#clipPath2)" stroke="none"/>
      <path fill="none" d="M29.9719 148.4082 L12.8371 194.1011" clip-path="url(#clipPath2)"/>
      <path d="M10.0281 201.5918 L18.9232 192.1114 L13.1882 193.1648 L9.5599 188.6002 Z" clip-path="url(#clipPath2)" stroke="none"/>
      <path fill="none" d="M47.5281 148.4082 L64.6629 194.1011" clip-path="url(#clipPath2)"/>
      <path d="M67.4719 201.5918 L67.9401 188.6002 L64.3118 193.1648 L58.5768 192.1114 Z" clip-path="url(#clipPath2)" stroke="none"/>
      <path fill="none" d="M156.25 150 L156.25 192" clip-path="url(#clipPath2)"/>
      <path d="M156.25 200 L161.25 188 L156.25 191 L151.25 188 Z" clip-path="url(#clipPath2)" stroke="none"/>
    </g>
  </g>
</svg>
